<svg width="24" height="24" viewBox="0 0 24 24" fill="none" xmlns="http://www.w3.org/2000/svg">
<path d="M4 11V19C4 19.5304 4.21071 20.0391 4.58579 20.4142C4.96086 20.7893 5.46957 21 6 21H18C18.5304 21 19.0391 20.7893 19.4142 20.4142C19.7893 20.0391 20 19.5304 20 19V11H4Z" stroke="white" stroke-width="2" stroke-linecap="round" stroke-linejoin="round"/>
<path d="M4.00018 11.0001L3.12018 8.13007C3.04303 7.8786 3.01625 7.61438 3.04136 7.35254C3.06648 7.0907 3.143 6.83639 3.26654 6.60416C3.39009 6.37194 3.55823 6.16637 3.76133 5.99922C3.96444 5.83207 4.19852 5.70663 4.45018 5.63007L15.9302 2.13007C16.4367 1.97386 16.9846 2.02514 17.4534 2.27266C17.9221 2.52017 18.2735 2.94366 18.4302 3.45007L19.3002 6.32007L4.00018 11.0101V11.0001Z" stroke="white" stroke-width="2" stroke-linecap="round" stroke-linejoin="round"/>
<path d="M6.6001 4.98999L9.9801 9.18999" stroke="white" stroke-width="2" stroke-linecap="round" stroke-linejoin="round"/>
<path d="M11.8599 3.37988L15.2399 7.57988" stroke="white" stroke-width="2" stroke-linecap="round" stroke-linejoin="round"/>
</svg>
