<svg width="24" height="24" viewBox="0 0 24 24" fill="none" xmlns="http://www.w3.org/2000/svg">
<path d="M4 6V4C4 3.46957 4.21071 2.96086 4.58579 2.58579C4.96086 2.21071 5.46957 2 6 2H14.5L20 7.5V20C20 20.5304 19.7893 21.0391 19.4142 21.4142C19.0391 21.7893 18.5304 22 18 22H4" stroke="white" stroke-width="2" stroke-linecap="round" stroke-linejoin="round"/>
<path d="M14 2V8H20" stroke="white" stroke-width="2" stroke-linecap="round" stroke-linejoin="round"/>
<path d="M10.2902 10.6999C9.94858 10.3589 9.51314 10.1273 9.03939 10.0346C8.56565 9.94203 8.07505 9.99262 7.63016 10.1799C7.34016 10.2999 7.07016 10.4799 6.85016 10.7099L6.50016 11.0499L6.15016 10.7099C5.81053 10.3692 5.3774 10.1369 4.90564 10.0426C4.43388 9.94823 3.94473 9.99604 3.50016 10.1799C3.20016 10.2999 2.94016 10.4799 2.71016 10.7099C1.76016 11.6499 1.71016 13.2399 2.91016 14.4499L6.50016 17.9999L10.1002 14.4499C11.3002 13.2399 11.2402 11.6499 10.2902 10.7099V10.6999Z" stroke="white" stroke-width="2" stroke-linecap="round" stroke-linejoin="round"/>
</svg>
