<svg width="24" height="24" viewBox="0 0 24 24" fill="none" xmlns="http://www.w3.org/2000/svg">
<path d="M22.0001 13.2899L18.6701 3.28989C18.6409 3.21813 18.5924 3.15583 18.5301 3.10989C18.471 3.04985 18.3936 3.01115 18.3101 2.99989C18.2279 2.99842 18.1475 3.02292 18.0801 3.06989C18.0177 3.11583 17.9692 3.17813 17.9401 3.24989L15.6801 9.91989H8.32007L6.10007 3.25989C6.08219 3.19252 6.04782 3.13066 6.00007 3.07989C5.92625 3.02205 5.83364 2.99356 5.74007 2.99989C5.65795 2.99842 5.57745 3.02292 5.51007 3.06989C5.4477 3.11583 5.39925 3.17813 5.37007 3.24989L2.00007 13.2899C1.95128 13.439 1.95114 13.5997 1.99968 13.7489C2.04821 13.8981 2.1429 14.028 2.27007 14.1199L12.0001 20.9999L21.6901 14.1199C21.8282 14.0372 21.9341 13.91 21.9904 13.7592C22.0468 13.6084 22.0502 13.4429 22.0001 13.2899Z" stroke="white" stroke-width="2" stroke-linecap="round" stroke-linejoin="round"/>
</svg>
