<svg width="24" height="24" viewBox="0 0 24 24" fill="none" xmlns="http://www.w3.org/2000/svg">
<path d="M2 2L22 22" stroke="white" stroke-width="2" stroke-linecap="round" stroke-linejoin="round"/>
<path d="M16.5 16.4999L12 20.9999L5 13.9999C3.5 12.5499 2 10.7999 2 8.4999C2.00067 7.65952 2.1939 6.83047 2.56487 6.0764C2.93584 5.32233 3.47467 4.6633 4.14 4.1499" stroke="white" stroke-width="2" stroke-linecap="round" stroke-linejoin="round"/>
<path d="M8.75977 3.1C9.90977 3.32 10.8898 3.88 11.9998 5C13.4998 3.5 14.7398 3 16.4998 3C17.9585 3 19.3574 3.57946 20.3889 4.61091C21.4203 5.64236 21.9998 7.04131 21.9998 8.5C21.9998 10.62 20.6998 12.28 19.3298 13.67" stroke="white" stroke-width="2" stroke-linecap="round" stroke-linejoin="round"/>
</svg>
