<svg width="24" height="24" viewBox="0 0 24 24" fill="none" xmlns="http://www.w3.org/2000/svg">
<g clip-path="url(#clip0_1_1937)">
<path d="M12 15C13.6569 15 15 13.6569 15 12C15 10.3431 13.6569 9 12 9C10.3431 9 9 10.3431 9 12C9 13.6569 10.3431 15 12 15Z" stroke="white" stroke-width="2" stroke-linecap="round" stroke-linejoin="round"/>
<path d="M19 7C20.1046 7 21 6.10457 21 5C21 3.89543 20.1046 3 19 3C17.8954 3 17 3.89543 17 5C17 6.10457 17.8954 7 19 7Z" stroke="white" stroke-width="2" stroke-linecap="round" stroke-linejoin="round"/>
<path d="M5 21C6.10457 21 7 20.1046 7 19C7 17.8954 6.10457 17 5 17C3.89543 17 3 17.8954 3 19C3 20.1046 3.89543 21 5 21Z" stroke="white" stroke-width="2" stroke-linecap="round" stroke-linejoin="round"/>
<path d="M10.3999 21.8999C12.3227 22.2158 14.2958 21.9631 16.0769 21.1729C17.858 20.3826 19.3694 19.0892 20.4254 17.4516C21.4814 15.814 22.036 13.9036 22.021 11.9551C22.006 10.0066 21.422 8.105 20.3409 6.48389" stroke="white" stroke-width="2" stroke-linecap="round" stroke-linejoin="round"/>
<path d="M13.4998 2.09996C11.5849 1.80754 9.62631 2.07757 7.86198 2.87726C6.09765 3.67694 4.60356 4.97184 3.56126 6.60461C2.51896 8.23739 1.97332 10.1377 1.99063 12.0748C2.00795 14.0118 2.58749 15.9021 3.65882 17.516" stroke="white" stroke-width="2" stroke-linecap="round" stroke-linejoin="round"/>
</g>
<defs>
<clipPath id="clip0_1_1937">
<rect width="24" height="24" fill="white"/>
</clipPath>
</defs>
</svg>
