<svg width="24" height="24" viewBox="0 0 24 24" fill="none" xmlns="http://www.w3.org/2000/svg">
<path d="M13 8C13 5.24 10.54 3 7.5 3C4.46 3 2 5.24 2 8H4L5 7L6 8H10" stroke="white" stroke-width="2" stroke-linecap="round" stroke-linejoin="round"/>
<path d="M13 7.13989C14.0126 6.39124 15.2407 5.99123 16.5 5.99989C19.54 5.99989 22 8.23989 22 10.9999H19L18 9.99989L17 10.9999H14" stroke="white" stroke-width="2" stroke-linecap="round" stroke-linejoin="round"/>
<path d="M5.89009 9.70997C3.74009 11.86 3.59009 15.18 5.54009 17.14L9.78009 12.89L10.4801 12.19L11.1901 11.48L13.3101 9.35997C11.3601 7.39997 8.04009 7.55997 5.89009 9.70997Z" stroke="white" stroke-width="2" stroke-linecap="round" stroke-linejoin="round"/>
<path d="M11 15.5C11.5 18 10.83 20 10 22H14C16 16.5 13.5 10 13 8" stroke="white" stroke-width="2" stroke-linecap="round" stroke-linejoin="round"/>
</svg>
