<svg width="24" height="24" viewBox="0 0 24 24" fill="none" xmlns="http://www.w3.org/2000/svg">
<path d="M2 22L3 21H6L15 12" stroke="white" stroke-width="2" stroke-linecap="round" stroke-linejoin="round"/>
<path d="M3 21V18L12 9" stroke="white" stroke-width="2" stroke-linecap="round" stroke-linejoin="round"/>
<path d="M14.9998 6.00008L18.3998 2.60008C18.7977 2.20226 19.3372 1.97876 19.8998 1.97876C20.4624 1.97876 21.002 2.20226 21.3998 2.60008C21.7977 2.9979 22.0212 3.53747 22.0212 4.10008C22.0212 4.66269 21.7977 5.20226 21.3998 5.60008L17.9998 9.00008L18.3998 9.40008C18.5968 9.59706 18.7531 9.83092 18.8597 10.0883C18.9663 10.3457 19.0212 10.6215 19.0212 10.9001C19.0212 11.1787 18.9663 11.4545 18.8597 11.7119C18.7531 11.9692 18.5968 12.2031 18.3998 12.4001C18.2029 12.5971 17.969 12.7533 17.7116 12.8599C17.4543 12.9665 17.1784 13.0214 16.8998 13.0214C16.6213 13.0214 16.3454 12.9665 16.088 12.8599C15.8307 12.7533 15.5968 12.5971 15.3998 12.4001L11.5998 8.60008C11.4029 8.4031 11.2466 8.16924 11.14 7.91187C11.0334 7.6545 10.9785 7.37866 10.9785 7.10008C10.9785 6.8215 11.0334 6.54566 11.14 6.28829C11.2466 6.03092 11.4029 5.79706 11.5998 5.60008C11.7968 5.4031 12.0307 5.24684 12.288 5.14024C12.5454 5.03363 12.8213 4.97876 13.0998 4.97876C13.3784 4.97876 13.6543 5.03363 13.9116 5.14024C14.169 5.24684 14.4029 5.4031 14.5998 5.60008L14.9998 6.00008Z" stroke="white" stroke-width="2" stroke-linecap="round" stroke-linejoin="round"/>
</svg>
