<svg width="24" height="24" viewBox="0 0 24 24" fill="none" xmlns="http://www.w3.org/2000/svg">
<path d="M6.99977 19H4.81477C4.49934 19.0009 4.18902 18.9203 3.91394 18.7659C3.63886 18.6116 3.40834 18.3887 3.24477 18.119C3.08768 17.8481 3.00461 17.5407 3.00391 17.2275C3.00321 16.9144 3.08489 16.6066 3.24077 16.335L7.19577 9.5" stroke="white" stroke-width="2" stroke-linecap="round" stroke-linejoin="round"/>
<path d="M11 19.0001H19.203C19.5169 18.9977 19.8249 18.9145 20.0974 18.7586C20.3699 18.6028 20.5978 18.3794 20.759 18.1101C20.9139 17.84 20.9954 17.534 20.9954 17.2226C20.9954 16.9112 20.9139 16.6052 20.759 16.3351L19.533 14.2151" stroke="white" stroke-width="2" stroke-linecap="round" stroke-linejoin="round"/>
<path d="M14 16L11 19L14 22" stroke="white" stroke-width="2" stroke-linecap="round" stroke-linejoin="round"/>
<path d="M8.2931 13.596L7.1961 9.5L3.1001 10.598" stroke="white" stroke-width="2" stroke-linecap="round" stroke-linejoin="round"/>
<path d="M9.34424 5.811L10.4372 3.919C10.5942 3.6454 10.8192 3.41701 11.0904 3.25599C11.3616 3.09497 11.6699 3.00679 11.9852 3C12.2982 2.99942 12.6058 3.08116 12.8771 3.23703C13.1485 3.39289 13.3741 3.6174 13.5312 3.888L17.4742 10.731" stroke="white" stroke-width="2" stroke-linecap="round" stroke-linejoin="round"/>
<path d="M13.3779 9.63301L17.4739 10.731L18.5709 6.63501" stroke="white" stroke-width="2" stroke-linecap="round" stroke-linejoin="round"/>
</svg>
