<svg width="24" height="24" viewBox="0 0 24 24" fill="none" xmlns="http://www.w3.org/2000/svg">
<path d="M20 14H4C2.89543 14 2 14.8954 2 16V20C2 21.1046 2.89543 22 4 22H20C21.1046 22 22 21.1046 22 20V16C22 14.8954 21.1046 14 20 14Z" stroke="white" stroke-width="2" stroke-linecap="round" stroke-linejoin="round"/>
<path d="M6.01 18H6" stroke="white" stroke-width="2" stroke-linecap="round" stroke-linejoin="round"/>
<path d="M10.01 18H10" stroke="white" stroke-width="2" stroke-linecap="round" stroke-linejoin="round"/>
<path d="M15 10V14" stroke="white" stroke-width="2" stroke-linecap="round" stroke-linejoin="round"/>
<path d="M17.8402 7.16997C17.4687 6.79807 17.0275 6.50303 16.5419 6.30173C16.0563 6.10044 15.5358 5.99683 15.0102 5.99683C14.4845 5.99683 13.964 6.10044 13.4784 6.30173C12.9928 6.50303 12.5517 6.79807 12.1802 7.16997" stroke="white" stroke-width="2" stroke-linecap="round" stroke-linejoin="round"/>
<path d="M20.6601 4.34007C19.16 2.84091 17.1259 1.99878 15.0051 1.99878C12.8843 1.99878 10.8502 2.84091 9.3501 4.34007" stroke="white" stroke-width="2" stroke-linecap="round" stroke-linejoin="round"/>
</svg>
