<svg width="24" height="24" viewBox="0 0 24 24" fill="none" xmlns="http://www.w3.org/2000/svg">
<path d="M12 16C14.2091 16 16 14.2091 16 12C16 9.79086 14.2091 8 12 8C9.79086 8 8 9.79086 8 12C8 14.2091 9.79086 16 12 16Z" stroke="white" stroke-width="2" stroke-linecap="round" stroke-linejoin="round"/>
<path d="M11.9998 8C11.7372 8.26264 11.5288 8.57445 11.3867 8.91761C11.2445 9.26077 11.1714 9.62857 11.1714 10C11.1714 10.3714 11.2445 10.7392 11.3867 11.0824C11.5288 11.4256 11.7372 11.7374 11.9998 12C12.2625 12.2626 12.5743 12.471 12.9174 12.6131C13.2606 12.7553 13.6284 12.8284 13.9998 12.8284C14.3712 12.8284 14.739 12.7553 15.0822 12.6131C15.4254 12.471 15.7372 12.2626 15.9998 12" stroke="white" stroke-width="2" stroke-linecap="round" stroke-linejoin="round"/>
<path d="M12 2V4" stroke="white" stroke-width="2" stroke-linecap="round" stroke-linejoin="round"/>
<path d="M12 20V22" stroke="white" stroke-width="2" stroke-linecap="round" stroke-linejoin="round"/>
<path d="M4.93018 4.92993L6.34018 6.33993" stroke="white" stroke-width="2" stroke-linecap="round" stroke-linejoin="round"/>
<path d="M17.6602 17.6599L19.0702 19.0699" stroke="white" stroke-width="2" stroke-linecap="round" stroke-linejoin="round"/>
<path d="M2 12H4" stroke="white" stroke-width="2" stroke-linecap="round" stroke-linejoin="round"/>
<path d="M20 12H22" stroke="white" stroke-width="2" stroke-linecap="round" stroke-linejoin="round"/>
<path d="M6.34018 17.6599L4.93018 19.0699" stroke="white" stroke-width="2" stroke-linecap="round" stroke-linejoin="round"/>
<path d="M19.0702 4.92993L17.6602 6.33993" stroke="white" stroke-width="2" stroke-linecap="round" stroke-linejoin="round"/>
</svg>
