<svg width="24" height="24" viewBox="0 0 24 24" fill="none" xmlns="http://www.w3.org/2000/svg">
<path d="M20.0001 16.2C20.7846 15.6572 21.3762 14.8791 21.6896 13.9781C22.0031 13.0771 22.022 12.0998 21.7438 11.1873C21.4656 10.2748 20.9047 9.47432 20.1419 8.90143C19.3791 8.32854 18.454 8.01288 17.5001 8.00002H15.7001C15.3978 6.9803 14.8671 6.04286 14.1484 5.25891C13.4296 4.47496 12.5416 3.8651 11.5519 3.47565C10.5622 3.08621 9.49676 2.92741 8.43649 3.01132C7.37622 3.09524 6.34901 3.41966 5.43288 3.95994C4.51674 4.50023 3.73577 5.24217 3.14926 6.12943C2.56276 7.01669 2.18615 8.02593 2.04804 9.08051C1.90993 10.1351 2.01394 11.2073 2.35218 12.2156C2.69042 13.224 3.25399 14.142 4.0001 14.9" stroke="white" stroke-width="2" stroke-linecap="round" stroke-linejoin="round"/>
<path d="M12 20C13.6569 20 15 18.6569 15 17C15 15.3431 13.6569 14 12 14C10.3431 14 9 15.3431 9 17C9 18.6569 10.3431 20 12 20Z" stroke="white" stroke-width="2" stroke-linecap="round" stroke-linejoin="round"/>
<path d="M12 13V14" stroke="white" stroke-width="2" stroke-linecap="round" stroke-linejoin="round"/>
<path d="M12 20V21" stroke="white" stroke-width="2" stroke-linecap="round" stroke-linejoin="round"/>
<path d="M16 17H15" stroke="white" stroke-width="2" stroke-linecap="round" stroke-linejoin="round"/>
<path d="M9 17H8" stroke="white" stroke-width="2" stroke-linecap="round" stroke-linejoin="round"/>
<path d="M15.0001 14L14.1201 14.88" stroke="white" stroke-width="2" stroke-linecap="round" stroke-linejoin="round"/>
<path d="M9.88 19.1201L9 20.0001" stroke="white" stroke-width="2" stroke-linecap="round" stroke-linejoin="round"/>
<path d="M15.0001 20.0001L14.1201 19.1201" stroke="white" stroke-width="2" stroke-linecap="round" stroke-linejoin="round"/>
<path d="M9.88 14.88L9 14" stroke="white" stroke-width="2" stroke-linecap="round" stroke-linejoin="round"/>
</svg>
