<svg width="24" height="24" viewBox="0 0 24 24" fill="none" xmlns="http://www.w3.org/2000/svg">
<path d="M16.2 3.7999C15.694 3.29611 15.009 3.01327 14.295 3.01327C13.581 3.01327 12.896 3.29611 12.39 3.7999L11.99 4.1799L11.59 3.7799C11.3393 3.52894 11.0415 3.32986 10.7138 3.19403C10.3861 3.05819 10.0348 2.98828 9.68001 2.98828C9.32525 2.98828 8.97397 3.05819 8.64624 3.19403C8.31851 3.32986 8.02076 3.52894 7.77001 3.7799C6.73001 4.8499 6.67001 6.6399 8.00001 7.9999L12 11.9999L16 7.9999C17.33 6.6399 17.27 4.8499 16.2 3.7999Z" stroke="white" stroke-width="2" stroke-linecap="round" stroke-linejoin="round"/>
<path d="M7.9999 8.00003C6.6399 6.67003 4.8499 6.73003 3.7999 7.80003C3.29611 8.30604 3.01327 8.991 3.01327 9.70503C3.01327 10.4191 3.29611 11.104 3.7999 11.61L4.1799 12.01L3.7799 12.41C3.52894 12.6608 3.32986 12.9585 3.19403 13.2863C3.05819 13.614 2.98828 13.9653 2.98828 14.32C2.98828 14.6748 3.05819 15.0261 3.19403 15.3538C3.32986 15.6815 3.52894 15.9793 3.7799 16.23C4.8499 17.27 6.6399 17.33 7.9999 16" stroke="white" stroke-width="2" stroke-linecap="round" stroke-linejoin="round"/>
<path d="M16 16C17.36 17.33 19.15 17.27 20.2 16.2C20.7038 15.694 20.9866 15.009 20.9866 14.295C20.9866 13.581 20.7038 12.896 20.2 12.39L19.82 11.99L20.22 11.59C20.471 11.3393 20.67 11.0415 20.8059 10.7138C20.9417 10.3861 21.0116 10.0348 21.0116 9.68001C21.0116 9.32525 20.9417 8.97397 20.8059 8.64624C20.67 8.31851 20.471 8.02076 20.22 7.77001C19.15 6.73001 17.36 6.67001 16 8.00001" stroke="white" stroke-width="2" stroke-linecap="round" stroke-linejoin="round"/>
<path d="M7.79981 20.2C8.30581 20.7038 8.99077 20.9866 9.70481 20.9866C10.4188 20.9866 11.1038 20.7038 11.6098 20.2L12.0098 19.82L12.4098 20.22C12.6606 20.471 12.9583 20.6701 13.286 20.8059C13.6138 20.9417 13.965 21.0116 14.3198 21.0116C14.6746 21.0116 15.0259 20.9417 15.3536 20.8059C15.6813 20.6701 15.9791 20.471 16.2298 20.22C17.2898 19.16 17.3498 17.37 16.0198 16.01L12.0198 12.01L8.01981 16.01C6.68981 17.37 6.74981 19.16 7.81981 20.21L7.79981 20.2Z" stroke="white" stroke-width="2" stroke-linecap="round" stroke-linejoin="round"/>
<path d="M7 17L2 22" stroke="white" stroke-width="2" stroke-linecap="round" stroke-linejoin="round"/>
</svg>
