<svg width="24" height="24" viewBox="0 0 24 24" fill="none" xmlns="http://www.w3.org/2000/svg">
<path d="M17.2799 9.05001C17.5189 8.23032 17.5639 7.36622 17.4111 6.52614C17.2584 5.68606 16.9122 4.89309 16.3999 4.21001C15.8875 3.52693 15.2232 2.97251 14.4595 2.59066C13.6958 2.20881 12.8537 2.01001 11.9999 2.01001C11.146 2.01001 10.3039 2.20881 9.54018 2.59066C8.77647 2.97251 8.11216 3.52693 7.59985 4.21001C7.08754 4.89309 6.74131 5.68606 6.58857 6.52614C6.43583 7.36622 6.48077 8.23032 6.71985 9.05001C5.81784 9.17968 4.96218 9.53144 4.22977 10.0737C3.49737 10.6159 2.91118 11.3317 2.52388 12.1565C2.13658 12.9814 1.96032 13.8896 2.01093 14.7995C2.06154 15.7094 2.33745 16.5924 2.81384 17.3693C3.29023 18.1461 3.95219 18.7924 4.74021 19.2501C5.52824 19.7078 6.41763 19.9625 7.32846 19.9913C8.23929 20.0201 9.14301 19.8222 9.9584 19.4153C10.7738 19.0083 11.4753 18.4052 11.9999 17.66C12.5231 18.4072 13.224 19.0125 14.0394 19.4215C14.8547 19.8304 15.7591 20.0302 16.6708 20.0027C17.5826 19.9752 18.4732 19.7213 19.2625 19.264C20.0518 18.8067 20.7149 18.1602 21.1922 17.3828C21.6694 16.6055 21.9459 15.7216 21.9966 14.8108C22.0473 13.9 21.8706 12.9909 21.4826 12.1654C21.0945 11.3398 20.5072 10.6238 19.7736 10.0817C19.0399 9.53961 18.183 9.18851 17.2799 9.06001V9.05001Z" stroke="white" stroke-width="2" stroke-linecap="round" stroke-linejoin="round"/>
<path d="M12 17.6599V21.9999" stroke="white" stroke-width="2" stroke-linecap="round" stroke-linejoin="round"/>
</svg>
