<svg width="24" height="24" viewBox="0 0 24 24" fill="none" xmlns="http://www.w3.org/2000/svg">
<path d="M8 2H4C2.89543 2 2 2.89543 2 4V8C2 9.10457 2.89543 10 4 10H8C9.10457 10 10 9.10457 10 8V4C10 2.89543 9.10457 2 8 2Z" stroke="white" stroke-width="2" stroke-linecap="round" stroke-linejoin="round"/>
<path d="M14 2C15.1 2 16 2.9 16 4V8C16 9.1 15.1 10 14 10" stroke="white" stroke-width="2" stroke-linecap="round" stroke-linejoin="round"/>
<path d="M20 2C21.1 2 22 2.9 22 4V8C22 9.1 21.1 10 20 10" stroke="white" stroke-width="2" stroke-linecap="round" stroke-linejoin="round"/>
<path d="M10 18H5C3.3 18 2 16.7 2 15V14" stroke="white" stroke-width="2" stroke-linecap="round" stroke-linejoin="round"/>
<path d="M7 21L10 18L7 15" stroke="white" stroke-width="2" stroke-linecap="round" stroke-linejoin="round"/>
<path d="M20 14H16C14.8954 14 14 14.8954 14 16V20C14 21.1046 14.8954 22 16 22H20C21.1046 22 22 21.1046 22 20V16C22 14.8954 21.1046 14 20 14Z" stroke="white" stroke-width="2" stroke-linecap="round" stroke-linejoin="round"/>
</svg>
