<svg width="24" height="24" viewBox="0 0 24 24" fill="none" xmlns="http://www.w3.org/2000/svg">
<path d="M12 14C13.1046 14 14 13.1046 14 12C14 10.8954 13.1046 10 12 10C10.8954 10 10 10.8954 10 12C10 13.1046 10.8954 14 12 14Z" stroke="white" stroke-width="2" stroke-linecap="round" stroke-linejoin="round"/>
<path d="M12 2V6" stroke="white" stroke-width="2" stroke-linecap="round" stroke-linejoin="round"/>
<path d="M6.7998 15L3.2998 17" stroke="white" stroke-width="2" stroke-linecap="round" stroke-linejoin="round"/>
<path d="M20.7002 7L17.2002 9" stroke="white" stroke-width="2" stroke-linecap="round" stroke-linejoin="round"/>
<path d="M6.7998 9L3.2998 7" stroke="white" stroke-width="2" stroke-linecap="round" stroke-linejoin="round"/>
<path d="M20.7002 17L17.2002 15" stroke="white" stroke-width="2" stroke-linecap="round" stroke-linejoin="round"/>
<path d="M9 22L12 14L15 22" stroke="white" stroke-width="2" stroke-linecap="round" stroke-linejoin="round"/>
<path d="M8 22H16" stroke="white" stroke-width="2" stroke-linecap="round" stroke-linejoin="round"/>
<path d="M18 18.6999C19.3586 17.4848 20.3162 15.8857 20.7461 14.1144C21.176 12.3431 21.0579 10.483 20.4076 8.7803C19.7572 7.07756 18.6051 5.61243 17.1038 4.57879C15.6025 3.54514 13.8227 2.9917 12 2.9917C10.1773 2.9917 8.39751 3.54514 6.89621 4.57879C5.39491 5.61243 4.24284 7.07756 3.59245 8.7803C2.94206 10.483 2.82401 12.3431 3.25392 14.1144C3.68382 15.8857 4.64142 17.4848 6 18.6999" stroke="white" stroke-width="2" stroke-linecap="round" stroke-linejoin="round"/>
</svg>
