<svg width="24" height="24" viewBox="0 0 24 24" fill="none" xmlns="http://www.w3.org/2000/svg">
<path d="M21.9999 5V2L16.1099 7.89" stroke="white" stroke-width="2" stroke-linecap="round" stroke-linejoin="round"/>
<path d="M16.6001 18.8899C18.257 18.8899 19.6001 17.5467 19.6001 15.8899C19.6001 14.233 18.257 12.8899 16.6001 12.8899C14.9432 12.8899 13.6001 14.233 13.6001 15.8899C13.6001 17.5467 14.9432 18.8899 16.6001 18.8899Z" stroke="white" stroke-width="2" stroke-linecap="round" stroke-linejoin="round"/>
<path d="M8.10986 10.3999C9.76672 10.3999 11.1099 9.05676 11.1099 7.3999C11.1099 5.74305 9.76672 4.3999 8.10986 4.3999C6.45301 4.3999 5.10986 5.74305 5.10986 7.3999C5.10986 9.05676 6.45301 10.3999 8.10986 10.3999Z" stroke="white" stroke-width="2" stroke-linecap="round" stroke-linejoin="round"/>
<path d="M12.3501 14.6499C14.007 14.6499 15.3501 13.3068 15.3501 11.6499C15.3501 9.99305 14.007 8.6499 12.3501 8.6499C10.6932 8.6499 9.3501 9.99305 9.3501 11.6499C9.3501 13.3068 10.6932 14.6499 12.3501 14.6499Z" stroke="white" stroke-width="2" stroke-linecap="round" stroke-linejoin="round"/>
<path d="M13.9102 8.8501C15.567 8.8501 16.9102 7.50695 16.9102 5.8501C16.9102 4.19324 15.567 2.8501 13.9102 2.8501C12.2533 2.8501 10.9102 4.19324 10.9102 5.8501C10.9102 7.50695 12.2533 8.8501 13.9102 8.8501Z" stroke="white" stroke-width="2" stroke-linecap="round" stroke-linejoin="round"/>
<path d="M18.1499 13.0901C19.8068 13.0901 21.1499 11.7469 21.1499 10.0901C21.1499 8.43323 19.8068 7.09009 18.1499 7.09009C16.493 7.09009 15.1499 8.43323 15.1499 10.0901C15.1499 11.7469 16.493 13.0901 18.1499 13.0901Z" stroke="white" stroke-width="2" stroke-linecap="round" stroke-linejoin="round"/>
<path d="M6.56006 16.2C8.21691 16.2 9.56006 14.8568 9.56006 13.2C9.56006 11.5431 8.21691 10.2 6.56006 10.2C4.9032 10.2 3.56006 11.5431 3.56006 13.2C3.56006 14.8568 4.9032 16.2 6.56006 16.2Z" stroke="white" stroke-width="2" stroke-linecap="round" stroke-linejoin="round"/>
<path d="M10.7998 20.4399C12.4567 20.4399 13.7998 19.0968 13.7998 17.4399C13.7998 15.7831 12.4567 14.4399 10.7998 14.4399C9.14295 14.4399 7.7998 15.7831 7.7998 17.4399C7.7998 19.0968 9.14295 20.4399 10.7998 20.4399Z" stroke="white" stroke-width="2" stroke-linecap="round" stroke-linejoin="round"/>
<path d="M5 22C6.65685 22 8 20.6569 8 19C8 17.3431 6.65685 16 5 16C3.34315 16 2 17.3431 2 19C2 20.6569 3.34315 22 5 22Z" stroke="white" stroke-width="2" stroke-linecap="round" stroke-linejoin="round"/>
</svg>
