<svg width="24" height="24" viewBox="0 0 24 24" fill="none" xmlns="http://www.w3.org/2000/svg">
<path d="M3 7V5C3 3.9 3.9 3 5 3H7" stroke="white" stroke-width="2" stroke-linecap="round" stroke-linejoin="round"/>
<path d="M17 3H19C20.1 3 21 3.9 21 5V7" stroke="white" stroke-width="2" stroke-linecap="round" stroke-linejoin="round"/>
<path d="M21 17V19C21 20.1 20.1 21 19 21H17" stroke="white" stroke-width="2" stroke-linecap="round" stroke-linejoin="round"/>
<path d="M7 21H5C3.9 21 3 20.1 3 19V17" stroke="white" stroke-width="2" stroke-linecap="round" stroke-linejoin="round"/>
<path d="M13 7H8C7.44772 7 7 7.44772 7 8V11C7 11.5523 7.44772 12 8 12H13C13.5523 12 14 11.5523 14 11V8C14 7.44772 13.5523 7 13 7Z" stroke="white" stroke-width="2" stroke-linecap="round" stroke-linejoin="round"/>
<path d="M16 12H11C10.4477 12 10 12.4477 10 13V16C10 16.5523 10.4477 17 11 17H16C16.5523 17 17 16.5523 17 16V13C17 12.4477 16.5523 12 16 12Z" stroke="white" stroke-width="2" stroke-linecap="round" stroke-linejoin="round"/>
</svg>
