<svg width="24" height="24" viewBox="0 0 24 24" fill="none" xmlns="http://www.w3.org/2000/svg">
<path d="M19 9C20.6569 9 22 7.65685 22 6C22 4.34315 20.6569 3 19 3C17.3431 3 16 4.34315 16 6C16 7.65685 17.3431 9 19 9Z" stroke="white" stroke-width="2" stroke-linecap="round" stroke-linejoin="round"/>
<path d="M22 12V15C22 15.5304 21.7893 16.0391 21.4142 16.4142C21.0391 16.7893 20.5304 17 20 17H4C3.46957 17 2.96086 16.7893 2.58579 16.4142C2.21071 16.0391 2 15.5304 2 15V5C2 4.46957 2.21071 3.96086 2.58579 3.58579C2.96086 3.21071 3.46957 3 4 3H13" stroke="white" stroke-width="2" stroke-linecap="round" stroke-linejoin="round"/>
<path d="M12 17V21" stroke="white" stroke-width="2" stroke-linecap="round" stroke-linejoin="round"/>
<path d="M8 21H16" stroke="white" stroke-width="2" stroke-linecap="round" stroke-linejoin="round"/>
</svg>
