<svg width="24" height="24" viewBox="0 0 24 24" fill="none" xmlns="http://www.w3.org/2000/svg">
<path d="M21.4398 11.0499L12.2498 20.2399C11.124 21.3658 9.59699 21.9982 8.0048 21.9982C6.41262 21.9982 4.88565 21.3658 3.7598 20.2399C2.63396 19.1141 2.00146 17.5871 2.00146 15.9949C2.00146 14.4027 2.63396 12.8758 3.7598 11.7499L12.3298 3.17991C13.0804 2.42802 14.0989 2.00509 15.1613 2.00415C16.2237 2.00321 17.2429 2.42435 17.9948 3.17491C18.7467 3.92547 19.1696 4.94398 19.1706 6.00638C19.1715 7.06877 18.7504 8.08802 17.9998 8.83991L9.4098 17.4099C9.03452 17.7852 8.52553 17.996 7.9948 17.996C7.46407 17.996 6.95508 17.7852 6.5798 17.4099C6.20452 17.0346 5.99369 16.5256 5.99369 15.9949C5.99369 15.4642 6.20452 14.9552 6.5798 14.5799L15.0698 6.09991" stroke="white" stroke-width="2" stroke-linecap="round" stroke-linejoin="round"/>
</svg>
