<svg width="24" height="24" viewBox="0 0 24 24" fill="none" xmlns="http://www.w3.org/2000/svg">
<path d="M20.9999 8L18.7399 5.74C16.9309 3.99122 14.5159 3.00947 11.9999 3C10.9999 3 10.0299 3.16 9.12988 3.47" stroke="white" stroke-width="2" stroke-linecap="round" stroke-linejoin="round"/>
<path d="M8 16H3V21" stroke="white" stroke-width="2" stroke-linecap="round" stroke-linejoin="round"/>
<path d="M3 11.9999C3 9.50989 4 7.25989 5.64 5.63989" stroke="white" stroke-width="2" stroke-linecap="round" stroke-linejoin="round"/>
<path d="M3 16L5.26 18.26C7.06897 20.0088 9.48395 20.9905 12 21C14.49 21 16.74 20 18.36 18.36" stroke="white" stroke-width="2" stroke-linecap="round" stroke-linejoin="round"/>
<path d="M20.9998 12C20.9998 13 20.8398 13.97 20.5298 14.87" stroke="white" stroke-width="2" stroke-linecap="round" stroke-linejoin="round"/>
<path d="M21 3V8H16" stroke="white" stroke-width="2" stroke-linecap="round" stroke-linejoin="round"/>
<path d="M22 22L2 2" stroke="white" stroke-width="2" stroke-linecap="round" stroke-linejoin="round"/>
</svg>
