<svg width="24" height="24" viewBox="0 0 24 24" fill="none" xmlns="http://www.w3.org/2000/svg">
<path d="M8 6H3C2.44772 6 2 6.44772 2 7V17C2 17.5523 2.44772 18 3 18H8C8.55228 18 9 17.5523 9 17V7C9 6.44772 8.55228 6 8 6Z" stroke="white" stroke-width="2" stroke-linecap="round" stroke-linejoin="round"/>
<path d="M13 8.32007C13.6392 9.44121 13.9754 10.7095 13.9754 12.0001C13.9754 13.2906 13.6392 14.5589 13 15.6801" stroke="white" stroke-width="2" stroke-linecap="round" stroke-linejoin="round"/>
<path d="M16.46 6.20996C17.459 7.97615 17.9841 9.97079 17.9841 12C17.9841 14.0291 17.459 16.0238 16.46 17.79" stroke="white" stroke-width="2" stroke-linecap="round" stroke-linejoin="round"/>
<path d="M19.9102 4.1001C21.2877 6.50473 22.0133 9.22749 22.0151 11.9988C22.0168 14.77 21.2947 17.4937 19.9202 19.9001" stroke="white" stroke-width="2" stroke-linecap="round" stroke-linejoin="round"/>
</svg>
