<svg width="24" height="24" viewBox="0 0 24 24" fill="none" xmlns="http://www.w3.org/2000/svg">
<path d="M21.9999 11.0001V12.0001C21.9898 14.0184 21.3691 15.9864 20.2196 17.6454C19.0701 19.3044 17.4454 20.5767 15.5592 21.2951C13.6731 22.0135 11.6137 22.1443 9.65175 21.6703C7.68984 21.1964 5.91727 20.1398 4.56707 18.6396C3.21686 17.1394 2.35223 15.2657 2.08684 13.2649C1.82144 11.2641 2.1677 9.22975 3.08011 7.42941C3.99251 5.62906 5.42835 4.14695 7.19885 3.17791C8.96935 2.20887 10.9917 1.79826 12.9999 2.00007" stroke="white" stroke-width="2" stroke-linecap="round" stroke-linejoin="round"/>
<path d="M8 14C8 14 9.5 16 12 16C14.5 16 16 14 16 14" stroke="white" stroke-width="2" stroke-linecap="round" stroke-linejoin="round"/>
<path d="M9 9H9.01" stroke="white" stroke-width="2" stroke-linecap="round" stroke-linejoin="round"/>
<path d="M15 9H15.01" stroke="white" stroke-width="2" stroke-linecap="round" stroke-linejoin="round"/>
<path d="M16 5H22" stroke="white" stroke-width="2" stroke-linecap="round" stroke-linejoin="round"/>
<path d="M19 2V8" stroke="white" stroke-width="2" stroke-linecap="round" stroke-linejoin="round"/>
</svg>
